<svg id="Group_13661" data-name="Group 13661" xmlns="http://www.w3.org/2000/svg" width="73.358" height="73.358" viewBox="0 0 73.358 73.358">
  <path id="Path_68522" data-name="Path 68522" d="M0,0H73.358V73.358H0Z" fill="none"/>
  <path id="Path_68523" data-name="Path 68523" d="M26.884,9.521l-6.358,6.521H8.358V55.166H59.219V16.041H47.051L40.693,9.521ZM24.252,3H43.325l6.358,6.521H62.4a3.22,3.22,0,0,1,3.179,3.26V58.426a3.22,3.22,0,0,1-3.179,3.26H5.179A3.22,3.22,0,0,1,2,58.426V12.781a3.22,3.22,0,0,1,3.179-3.26H17.894Zm9.537,48.905A17.712,17.712,0,0,1,16.3,33.973,17.712,17.712,0,0,1,33.789,16.041,17.712,17.712,0,0,1,51.272,33.973,17.712,17.712,0,0,1,33.789,51.905Zm0-6.521A11.415,11.415,0,1,0,22.663,33.973,11.271,11.271,0,0,0,33.789,45.385Z" transform="translate(2.891 4.336)" fill="#32a4ff"/>
</svg>
